<mxfile host="65bd71144e" pages="7">
    <diagram id="DoXFOzantydcRbyrOaLm" name="FM Portalen">
        <mxGraphModel dx="1204" dy="4143" grid="1" gridSize="10" guides="1" tooltips="1" connect="1" arrows="1" fold="1" page="1" pageScale="1" pageWidth="827" pageHeight="1169" math="0" shadow="0">
            <root>
                <mxCell id="ERaS4kOA_Src37u5DPk3-0"/>
                <mxCell id="ERaS4kOA_Src37u5DPk3-1" parent="ERaS4kOA_Src37u5DPk3-0"/>
                <mxCell id="ERaS4kOA_Src37u5DPk3-2" value="&lt;h1&gt;&lt;span&gt;&lt;font style=&quot;font-size: 35px&quot;&gt;FM Portalen - KEID systemer&lt;/font&gt;&lt;/span&gt;&lt;br&gt;&lt;/h1&gt;" style="rounded=1;whiteSpace=wrap;html=1;labelBackgroundColor=none;align=center;verticalAlign=top;arcSize=4;" parent="ERaS4kOA_Src37u5DPk3-1" vertex="1">
                    <mxGeometry x="108" y="-3090" width="1500" height="620" as="geometry"/>
                </mxCell>
                <mxCell id="ERaS4kOA_Src37u5DPk3-3" value="&lt;h1&gt;Tre selvstÃ¦ndige KEID systemer&lt;/h1&gt;" style="rounded=1;whiteSpace=wrap;html=1;labelBackgroundColor=none;align=center;verticalAlign=top;arcSize=4;fillColor=#dae8fc;strokeColor=#6c8ebf;" parent="ERaS4kOA_Src37u5DPk3-1" vertex="1">
                    <mxGeometry x="628" y="-2960" width="490" height="451.25" as="geometry"/>
                </mxCell>
                <mxCell id="ERaS4kOA_Src37u5DPk3-4" value="&lt;b style=&quot;font-size: 27px&quot;&gt;Dataordbogen&lt;/b&gt;" style="rounded=1;whiteSpace=wrap;html=1;fontSize=27;align=center;fillColor=#d5e8d4;strokeColor=#82b366;" parent="ERaS4kOA_Src37u5DPk3-1" vertex="1">
                    <mxGeometry x="674" y="-2878.75" width="394" height="100" as="geometry"/>
                </mxCell>
                <mxCell id="ERaS4kOA_Src37u5DPk3-5" value="&lt;b style=&quot;font-size: 27px&quot;&gt;Datahub&lt;/b&gt;" style="rounded=1;whiteSpace=wrap;html=1;fontSize=27;align=center;fillColor=#ffe6cc;strokeColor=#d79b00;" parent="ERaS4kOA_Src37u5DPk3-1" vertex="1">
                    <mxGeometry x="674" y="-2753.75" width="394" height="100" as="geometry"/>
                </mxCell>
                <mxCell id="ERaS4kOA_Src37u5DPk3-6" value="&lt;b style=&quot;font-size: 27px&quot;&gt;Databanken&lt;/b&gt;" style="rounded=1;whiteSpace=wrap;html=1;fontSize=27;align=center;fillColor=#d5e8d4;strokeColor=#82b366;" parent="ERaS4kOA_Src37u5DPk3-1" vertex="1">
                    <mxGeometry x="674" y="-2631.49" width="394" height="100" as="geometry"/>
                </mxCell>
                <mxCell id="ERaS4kOA_Src37u5DPk3-7" value="" style="shape=flexArrow;endArrow=classic;startArrow=classic;html=1;gradientColor=none;endSize=6;startSize=6;fillColor=#ffffff;" parent="ERaS4kOA_Src37u5DPk3-1" edge="1">
                    <mxGeometry width="50" height="50" relative="1" as="geometry">
                        <mxPoint x="872.7600000000002" y="-2614" as="sourcePoint"/>
                        <mxPoint x="872.7600000000002" y="-2678" as="targetPoint"/>
                    </mxGeometry>
                </mxCell>
                <mxCell id="ERaS4kOA_Src37u5DPk3-8" value="Eksterne kilder der transformeres&amp;nbsp;" style="rounded=1;whiteSpace=wrap;html=1;fontSize=29;align=center;" parent="ERaS4kOA_Src37u5DPk3-1" vertex="1">
                    <mxGeometry x="138" y="-2611.49" width="453" height="60" as="geometry"/>
                </mxCell>
                <mxCell id="ERaS4kOA_Src37u5DPk3-9" value="" style="shape=flexArrow;endArrow=classic;html=1;fontSize=29;exitX=1;exitY=0.5;exitDx=0;exitDy=0;entryX=0;entryY=0.5;entryDx=0;entryDy=0;startSize=3;endSize=5;fillColor=#ffffff;" parent="ERaS4kOA_Src37u5DPk3-1" source="ERaS4kOA_Src37u5DPk3-8" target="ERaS4kOA_Src37u5DPk3-6" edge="1">
                    <mxGeometry width="50" height="50" relative="1" as="geometry">
                        <mxPoint x="688" y="-2620" as="sourcePoint"/>
                        <mxPoint x="738" y="-2670" as="targetPoint"/>
                    </mxGeometry>
                </mxCell>
                <mxCell id="ERaS4kOA_Src37u5DPk3-10" value="FM Fagsystemer" style="rounded=1;whiteSpace=wrap;html=1;fontSize=29;align=center;" parent="ERaS4kOA_Src37u5DPk3-1" vertex="1">
                    <mxGeometry x="1168" y="-2728.75" width="394" height="60" as="geometry"/>
                </mxCell>
                <mxCell id="ERaS4kOA_Src37u5DPk3-11" value="" style="shape=flexArrow;endArrow=classic;html=1;fontSize=29;startSize=6;endSize=6;startArrow=block;fillColor=#ffffff;" parent="ERaS4kOA_Src37u5DPk3-1" edge="1">
                    <mxGeometry width="50" height="50" relative="1" as="geometry">
                        <mxPoint x="1168" y="-2696" as="sourcePoint"/>
                        <mxPoint x="1067" y="-2696" as="targetPoint"/>
                    </mxGeometry>
                </mxCell>
                <mxCell id="ERaS4kOA_Src37u5DPk3-12" value="Eksterne kilder direkte" style="rounded=1;whiteSpace=wrap;html=1;fontSize=29;align=center;" parent="ERaS4kOA_Src37u5DPk3-1" vertex="1">
                    <mxGeometry x="138" y="-2728.75" width="453" height="60" as="geometry"/>
                </mxCell>
                <mxCell id="ERaS4kOA_Src37u5DPk3-13" value="" style="shape=flexArrow;endArrow=classic;html=1;fontSize=29;entryX=0;entryY=0.5;entryDx=0;entryDy=0;startSize=3;endSize=5;fillColor=#FFFFFF;" parent="ERaS4kOA_Src37u5DPk3-1" edge="1">
                    <mxGeometry width="50" height="50" relative="1" as="geometry">
                        <mxPoint x="591" y="-2699" as="sourcePoint"/>
                        <mxPoint x="674" y="-2699.37" as="targetPoint"/>
                    </mxGeometry>
                </mxCell>
                <mxCell id="ERaS4kOA_Src37u5DPk3-14" value="" style="curved=1;endArrow=classic;html=1;fillColor=#191919;fontSize=29;entryX=0.5;entryY=0;entryDx=0;entryDy=0;exitX=1;exitY=0.5;exitDx=0;exitDy=0;" parent="ERaS4kOA_Src37u5DPk3-1" source="ERaS4kOA_Src37u5DPk3-4" target="ERaS4kOA_Src37u5DPk3-10" edge="1">
                    <mxGeometry width="50" height="50" relative="1" as="geometry">
                        <mxPoint x="708" y="-2770" as="sourcePoint"/>
                        <mxPoint x="758" y="-2820" as="targetPoint"/>
                        <Array as="points">
                            <mxPoint x="1248" y="-2820"/>
                        </Array>
                    </mxGeometry>
                </mxCell>
                <mxCell id="ERaS4kOA_Src37u5DPk3-15" value="" style="endArrow=classic;html=1;fillColor=#191919;fontSize=29;" parent="ERaS4kOA_Src37u5DPk3-1" edge="1">
                    <mxGeometry width="50" height="50" relative="1" as="geometry">
                        <mxPoint x="873" y="-2779" as="sourcePoint"/>
                        <mxPoint x="872.7600000000002" y="-2740" as="targetPoint"/>
                    </mxGeometry>
                </mxCell>
                <mxCell id="ERaS4kOA_Src37u5DPk3-16" value="Rapportering m.m." style="rounded=1;whiteSpace=wrap;html=1;fontSize=29;align=center;" parent="ERaS4kOA_Src37u5DPk3-1" vertex="1">
                    <mxGeometry x="1168" y="-2614.38" width="394" height="60" as="geometry"/>
                </mxCell>
                <mxCell id="ERaS4kOA_Src37u5DPk3-17" value="" style="shape=flexArrow;endArrow=classic;html=1;fontSize=29;exitX=1;exitY=0.5;exitDx=0;exitDy=0;entryX=0;entryY=0.5;entryDx=0;entryDy=0;startSize=3;endSize=5;fillColor=#ffffff;" parent="ERaS4kOA_Src37u5DPk3-1" target="ERaS4kOA_Src37u5DPk3-16" edge="1">
                    <mxGeometry width="50" height="50" relative="1" as="geometry">
                        <mxPoint x="1068.0000000000018" y="-2585.01" as="sourcePoint"/>
                        <mxPoint x="1151" y="-2583.76" as="targetPoint"/>
                    </mxGeometry>
                </mxCell>
            </root>
        </mxGraphModel>
    </diagram>
</mxfile>